<svg id="Layer_1" data-name="Layer 1" xmlns="http://www.w3.org/2000/svg" viewBox="0 0 1000 1000"><defs><style>.cls-1{fill:#414042;}</style></defs><g id="Em3lPd"><path class="cls-1" d="M295.05,481.05c-15.22-1.18-29.08-.75-42.6-3.95C161.21,455.44,121.26,353,172.33,271.33c46-73.49,140.82-96.95,207.74-50.42,43.33,30.12,60.36,73,54.35,124.85-1.54,13.32.14,16,14,12.73,39.2-9.19,78.4-6.44,118,5.53.89-16.49-3.64-31.69-1.83-47.25,10.41-89.64,94.59-141.11,182.4-111.2,88.81,30.26,130.59,134.61,83.84,211.88-25.77,42.61-65.39,62.07-114.91,62-19.77,0-19.77.05-13.18,17.7C760,650.68,647.13,808.22,483.55,803c-116.73-3.76-213.48-110.74-209-230.46C275.69,541.05,282.81,511.15,295.05,481.05Z"/></g></svg>